<svg width="65" height="29" viewBox="0 0 65 29" fill="none" xmlns="http://www.w3.org/2000/svg">
<mask id="mask0_5985_21365" style="mask-type:alpha" maskUnits="userSpaceOnUse" x="0" y="0" width="65" height="29">
<path d="M0 28.3818V0.618164H11.9966V4.76557H6.13541V11.7579H11.2425V16.0424H6.13541V28.3818H0Z" fill="#3A3A3A"/>
<path d="M16.7407 28.3818V0.618164H22.8761V28.3818H16.7407Z" fill="#3A3A3A"/>
<path d="M28.8606 28.3818V0.618164H33.1794L38.8692 13.9858V0.618164H43.9421V28.3818H39.7947L34.1049 13.9858V28.3818H28.8606Z" fill="#3A3A3A"/>
<path d="M49.9185 28.3818V0.618164H54.2373L59.9271 13.9858V0.618164H65V28.3818H60.8526L55.1628 13.9858V28.3818H49.9185Z" fill="#3A3A3A"/>
</mask>
<g mask="url(#mask0_5985_21365)">
<path d="M34.4948 44.3468C38.6775 58.193 22.5822 63.5156 14.0117 64.4461L34.4948 82.3123C46.1203 82.3123 65.4961 70.3395 59.1605 51.915C52.8249 33.4906 59.0146 29.5274 74.0461 24.6196C82.5961 21.828 79.1515 10.1034 86.2252 11.158L74.3274 -10.1135C74.428 -10.4908 74.3197 -10.6913 74.0461 -10.6164L74.3274 -10.1135C73.8173 -8.20009 67.9346 -1.74101 50.9796 -3.60641C24.4106 -6.52956 29.2664 27.0389 34.4948 44.3468Z" fill="black"/>
<path d="M18.9093 27.2085C23.4769 42.3278 5.9009 48.1397 -3.45801 49.1558L18.9093 68.6646C31.6043 68.6646 52.7626 55.591 45.8442 35.4726C38.9258 15.3542 45.6848 11.0267 62.0992 5.66761C71.4357 2.61938 68.694 -4.84707 75.2141 -8.81732L62.404 -32.2502C62.5178 -32.6678 62.3999 -32.8903 62.0992 -32.8079L62.404 -32.2502C61.8318 -30.1503 55.4002 -23.1193 36.9107 -25.1535C7.89751 -28.3454 13.2 8.30942 18.9093 27.2085Z" fill="#EF772E"/>
<path d="M20.1013 28.3417C24.6531 45.6495 6.19993 46.7661 -1.58221 50.7005L-24.3326 31.6476C-26.4147 19.0177 -17.0974 -4.17625 3.71548 -0.592955C24.5283 2.99035 27.6527 -4.4438 30.2023 -21.6529C31.6526 -31.4414 58.3553 -37.8601 55.9621 -45.3561L64.3707 -28.5768C64.455 -28.568 64.4941 -28.4973 64.4802 -28.3584L64.3707 -28.5768C63.3109 -28.6882 55.1009 -19.0285 55.1009 -12.4774C55.1009 5.97275 12.3987 -0.946861 20.1013 28.3417Z" fill="black"/>
</g>
</svg>
