<?xml version="1.0" encoding="UTF-8" standalone="no"?>
<!-- Created with Inkscape (http://www.inkscape.org/) -->

<svg
   version="1.1"
   id="svg1"
   width="512.00006"
   height="434.74902"
   viewBox="0 0 512.00006 434.74902"
   xmlns="http://www.w3.org/2000/svg"
   xmlns:svg="http://www.w3.org/2000/svg">
  <defs
     id="defs1" />
  <g
     id="g1"
     transform="matrix(1.0695445,0,0,1.0695445,-389.42079,-366.86229)">
    <path
       style="fill:#073E29;fill-opacity:1;stroke-width:100;stroke-dasharray:none"
       d="M 515,748.32026 C 326.23952,734.46398 309.13648,467.93463 494.5,428.85359 c 12.06499,-2.54372 85.56752,-4.04876 92.74277,-1.899 14.39512,4.31288 18.72003,23.40192 7.62647,33.6613 -5.58502,5.16506 -7.35974,5.38362 -43.76846,5.39001 -79.52091,0.014 -122.71155,25.48463 -142.0515,83.77159 -43.87411,132.22825 139.32418,220.09485 216.69119,103.93066 20.1028,-30.18373 19.56759,-25.52479 19.78314,-172.20968 0.18223,-124.00154 0.18223,-124.00154 2.34906,-128.24889 6.73302,-13.1978 26.56792,-13.76274 34.484,-0.98219 3.25785,5.25981 3.17489,4.11271 3.47007,47.98261 C 686,426 686,426 731.75,426.02196 c 50.57835,0.0243 50.25755,-0.0132 56.43638,6.60194 9.03855,9.67687 5.61746,25.78375 -6.68638,31.48024 -3.70699,1.71628 -7.35399,1.85354 -49.78682,1.8739 C 685.92635,466 685.92635,466 686.24637,539.25 c 0.36733,84.08056 -0.0318,80.53459 11.73349,104.25 20.77219,41.87081 55.82306,62.87706 107.52014,64.43762 27.97676,0.84453 31.86931,2.35477 35.96115,13.95228 13.16733,37.32017 -73.1891,36.61576 -128.70196,-1.04982 C 699.42742,711.79444 680.31596,692.30302 672,679.27053 664.28035,667.17257 665.31038,667.5284 660.36165,675.25 c -26.74192,41.72591 -72.0865,68.51655 -123.12631,72.74591 -11.55055,0.95712 -13.27293,0.98225 -22.23534,0.32435 z m -9.19261,-81.35669 c -50.4672,-12.40991 -76.32992,-68.50322 -53.25895,-115.51261 32.58525,-66.39571 131.08189,-57.47566 151.50303,13.72041 17.20008,59.96616 -37.56823,116.71244 -98.24408,101.7922 z"
       id="outer" />
    <path
       style="fill:#073E29;fill-opacity:1;stroke:#073E29;stroke-width:0;stroke-linecap:square;stroke-dasharray:none;stroke-opacity:0"
       d="m 502.68251,664.51479 c -34.46449,-11.27446 -55.87908,-40.12507 -56.33082,-75.89119 -0.50691,-40.13389 25.48385,-71.46103 66.04661,-79.6072 33.84165,-6.79637 71.64328,13.61805 86.94235,46.95242 8.2323,17.93693 7.58042,46.78792 -1.47372,65.22489 -8.08172,16.45681 -24.8119,32.74197 -40.98741,39.89718 -14.3823,6.36197 -40.22502,7.99459 -54.19701,3.4239 z"
       id="inner" />
  </g>
</svg>
